<svg xmlns="http://www.w3.org/2000/svg" viewBox="0 0 152.775 155.336"><path fill="#7084CB" d="M.007 77.701c-.373-31.358 13.824-62.659 43.295-72.25 22.106-7.194 44.529-7.281 66.652-.185 21.572 6.919 34.43 22.571 39.581 44.803 4.394 18.964 4.384 38.07-.431 56.96-6.192 24.295-21.604 39.311-45.396 45.029-18.956 4.556-38.019 4.457-56.833-.9C16.272 142.444.391 110.042.007 77.701z"/><path fill="#FFF" d="M40.136 116.276h65.602c3.482 0 6.305-3.049 6.305-6.81V76.972c0-3.761-2.823-6.81-6.305-6.81h-67.87c-3.482 0-6.305 3.049-6.305 6.81v30.047c0 3.826-6.805 9.258-6.805 9.258l15.378-.001z"/><path fill="#212E78" d="M121.58 65.21H63.21c-3.058 0-5.545-2.65-5.545-5.909V35.879c0-3.258 2.487-5.909 5.545-5.909h48.92c3.058 0 5.545 2.65 5.545 5.909v21.657c0 1.654 2.778 4.492 4.529 5.892l2.228 1.781-2.852.001zM63.21 31.97c-1.955 0-3.545 1.753-3.545 3.909v23.422c0 2.155 1.59 3.909 3.545 3.909h55.774c-1.509-1.516-3.31-3.733-3.31-5.673V35.879c0-2.155-1.59-3.909-3.545-3.909H63.21zM53.763 90.769c-2.292 0-4.859-.812-5.605-3.121-1.356.644-2.733 1.083-3.999 1.2a1 1 0 0 1-.183-1.992c1.251-.115 2.675-.635 4.054-1.372.052-.372.13-.745.214-1.12.379-1.694.802-3.332 1.788-4.726.152-.215.304-.491.466-.781.596-1.066 1.339-2.392 2.668-2.521.837-.08 1.652.349 2.44 1.279.393.462.951 1.48.287 3.108-.772 1.89-3.158 4.24-5.912 5.932.015.126.04.248.076.364.408 1.297 2.312 1.815 4.008 1.744a14.97 14.97 0 0 0 8.189-2.859 1 1 0 0 1 1.427 1.356c.055.114.237.278.386.288.479.022 1.027-.292 1.61-.632l.292-.169c1.361-.776 2.539-.904 3.5-.383.371.201.647.476.87.696.069.068.138.137.21.202 1.354 1.227 3.628.898 5.886.359a.974.974 0 0 1 .228-.027l7.662-.026c2.583-.005 5.239-.018 7.876.33a.998.998 0 0 1 .86 1.122.992.992 0 0 1-1.122.86c-2.502-.33-5.091-.315-7.607-.312l-7.546.026c-1.784.421-5.307 1.208-7.579-.85-.094-.085-.185-.175-.275-.264-.153-.151-.297-.295-.417-.36-.299-.16-.866-.029-1.554.362l-.274.159c-.74.433-1.662.965-2.745.901-.744-.047-1.46-.48-1.888-1.116a17.009 17.009 0 0 1-8.291 2.343zm-.4-12.442h-.003c-.289.028-.89 1.103-1.116 1.507-.2.357-.392.694-.579.959-.634.897-.983 1.979-1.279 3.192 1.747-1.299 3.161-2.807 3.656-4.018.202-.495.216-.852.04-1.059-.416-.488-.667-.581-.719-.581z"/><path fill="#FFF" d="M66.122 46.73h43.248v2H66.122zM66.122 40.168h43.248v2H66.122zM66.122 53.252H91.16v2H66.122z"/><path fill="#7084CB" d="M43.647 97.266h50.967v2H43.647z"/><g><path fill="#7084CB" d="M43.647 103.753h33.159v2H43.647z"/></g></svg>