<svg xmlns="http://www.w3.org/2000/svg" viewBox="0 0 152.7 155.7"><path fill="#7285C2" d="M0 77.9c0-12.3 1.9-24.5 5.8-35.4 6.4-18.5 18.7-31.2 37-37 22.2-7.2 44.6-7.2 66.8-.2 21.6 7 34.5 22.6 39.7 45 4.5 19.1 4.5 38.2-.4 57.1-6.2 24.3-21.6 39.3-45.6 45.2-19.1 4.5-38.2 4.5-57.1-1C13.8 142.3.2 109.8 0 77.9z"/><path fill="#616FB4" d="M14.51 45.63l46.695-21.967L94.539 94.52l-46.695 21.966z"/><path fill="#7285C2" d="M65.8 109L31.7 31.5l-8.3 3.8C35 60.2 46.2 85.3 57 110.5"/><path fill="#616FB4" stroke="#0E1439" stroke-miterlimit="10" stroke-width="2.0001" d="M49.554 40.019l53.782-4.915 7.125 77.983-53.781 4.915z"/><path fill="#FFF" d="M64.642 123.608l19.442-79.664 50.81 12.4-19.442 79.664z"/><path fill="#7285C2" d="M76.457 126.466L95.9 46.802l8.646 2.11-19.442 79.665z"/><path fill="none" stroke="#0E1439" stroke-miterlimit="10" stroke-width="2.00002" d="M64.642 123.608l19.442-79.664 50.81 12.4-19.442 79.664z"/><path fill="none" stroke="#0E1439" stroke-miterlimit="10" stroke-width="2" d="M112.2 97.8c1.9-6.4-.5-13.9-5.8-18-1.2 1.7-1.4 4.1-.5 6s2.9 3.2 5 3.3c1 .1 2.1-.2 2.9-.8 2-1.4 2.2-4.3 1.8-6.8s-1.1-5-.3-7.3c.1-.3.3-.7.6-.8.5-.2 1.1.3 1.6.3 1 .1 1.6-1.1 1.9-2.2.8-2.8 1.6-5.7 2.4-8.5"/><path fill="#7285C2" d="M59.2 60.5l-1-11c-.1-1.1.7-2 1.7-2.1l9.8-.9c1.1-.1 2 .7 2.1 1.7l1 11c.1 1.1-.7 2-1.7 2.1l-9.8.9c-1.1.1-2-.7-2.1-1.7z"/><path fill="none" stroke="#FFF" stroke-miterlimit="10" d="M59.2 60.5l-1-11c-.1-1.1.7-2 1.7-2.1l9.8-.9c1.1-.1 2 .7 2.1 1.7l1 11c.1 1.1-.7 2-1.7 2.1l-9.8.9c-1.1.1-2-.7-2.1-1.7zM63.3 52.3c.9 5.2 1.6 10.4 1.9 15.7M67.6 54.4c.6 4.2 1.1 8.4 1.7 12.6"/><path fill="none" stroke="#0E1439" stroke-miterlimit="10" stroke-width="2" d="M100.2 125.6c1.8-7.1 3.5-14.2 5.1-21.3M104.7 126.4c1.2-5.6 2.4-11.1 3.7-16.7"/></svg>