<svg xmlns="http://www.w3.org/2000/svg" viewBox="0 0 152.7 155.7"><path fill="#7285C2" d="M0 77.9c0-12.3 1.9-24.5 5.8-35.4 6.4-18.5 18.7-31.2 37-37 22.2-7.2 44.6-7.2 66.8-.2 21.6 7 34.5 22.6 39.7 45 4.5 19.1 4.5 38.2-.4 57.1-6.2 24.3-21.6 39.3-45.6 45.2-19.1 4.5-38.2 4.5-57.1-1C13.8 142.3.2 109.8 0 77.9z"/><path fill="#616FB4" d="M88.9 67.7c-2.2.5-4.5.4-6.7.4-4.4 0-8.9.4-12.8 2.3-4 1.9-7.3 5.4-8 9.8-.2 1.2 0 2.6 1 3.2.8.4 1.7.3 2.6 0 14.8-3.7 32 3.9 42.1 11.1 0 0-.7-15.7-.7-16.9-.1-4.6-.3-9.8-1.6-14.3-1.2-4.1-3.1-5.1-6.1-2-2.8 3-5.7 5.6-9.8 6.4z"/><path fill="none" stroke="#0E1439" stroke-miterlimit="10" stroke-width="2" d="M92.2 30.8S86.9 56.4 53.6 65l5.7 19.6c28.4-8.1 50.1 12.1 50.1 12.1"/><path fill="#0E1439" stroke="#0E1439" stroke-miterlimit="10" d="M31.3 92.7c.8.1 1.7.1 2.5 0 4-.1 34-1.6 32.3-8.1l-4.5-17.1c-1.9-7.4-5.6-8.4-12.6-6.3-7.6 2.4-15.2 5.1-22.3 8.9-1.4.8-2.9 1.6-3.9 2.9-4 5.5 1.4 19.2 8.5 19.7z"/><g fill="none" stroke="#0E1439" stroke-miterlimit="10"><path d="M110.6 58.2c5.4-2.6 10.5-5.9 15.1-9.7M113.9 63.8c3-1.8 6.6-2.7 10.1-2.7 1.5 0 3.1.3 4.2 1.3s1.5 2.9.5 4c-.8.8-2.1.9-3.2.7-.9-.2-2.1-.8-1.8-1.7.1-.4.5-.6.8-.9 3.9-2.5 9-3.2 13.5-1.7M114.7 71c5.8.4 11.4 2.6 16 6.2M137.5 79.5c-1.6-.9-3.2 2-1 2.3 1.6.1 2.7-1.4 1-2.3zM135 72.5c-.9.1-1.4 1.3-1 2.1.5.8 1.8.7 2.3 0s-.1-2-1-2.1M132.7 45.6c-.2-.6-1.3-.5-1.5.1s.2 1.3.7 1.7c.6.4 1.5.4 2-.1s.3-1.6-.4-1.7M116.8 50.3c2.8-1.9 5.3-4.3 7.2-7.1"/></g><path fill="#FFF" stroke="#0E1439" stroke-miterlimit="10" d="M92 33c8.8 19.2 13.7 40.1 14.4 61.2 0 1.4.1 2.8.9 3.9s2.6 1.6 3.5.6c.6-.7.6-1.7.5-2.5-.9-17.2-4.1-34.3-9.4-50.6-1.5-4.5-3.1-8.9-5.4-13.1-.6-1.1-2-4.6-3.5-4.7-2.8-.2-1.6 3.9-1 5.2z"/><path fill="#616FB4" d="M59.3 99.2c.1 2.2-1.4 3.4-2 5.5-.7 2.6.3 5.8 2.1 7.8 2.1 2.4 5.6 3.7 6.7 6.7 1.3 3.2-.6 7.2 1 10.2.5 1 1.4 1.7 2.3 2.4 1.8 1.4 4 2.6 6.1 2.1 2.2-.5 3.7-2.5 5-4.4.3-.5.6-1 .5-1.5s-.6-.9-1.1-1.1c-5.1-3.1-9.5-7.2-13.1-11.9-1.7-2.3-3.7-4.9-4.6-7.6-1.1-3.1 1.5-4.8.6-7.8-.2-.7-.6-1.3-1-1.9-.7-1-1.4-2.1-2.2-3.1-.4-.5-.8-1.1-1.4-1.3-.6-.2-1.4.1-1.5.7 1 1.4 1.9 2.9 2.3 4.5.3.1.3.4.3.7z"/><path fill="none" stroke="#0E1439" stroke-miterlimit="10" stroke-width="2" d="M43.6 97.4c4.6 7.8 9.7 15.3 15.2 22.5 2.9 3.8 11.6 18.6 17.5 14.6 1.2-.8 2.1-2 3-3.2.8-1 1.6-2.3.9-3.4-.2-.3-.6-.6-.9-.8-7.4-4.9-11.9-11.1-16.8-18.4-.5-.7-1-1.4-1-2.3-.1-1.9 2.1-3.4 2-5.2-.1-.9-.7-1.7-1.2-2.4-2.7-3.4-5-6.7-7.2-10.3"/><path fill="#FFF" stroke="#0E1439" stroke-miterlimit="10" d="M60.7 91.6c-.6-3.3-4.1-6.3-7.2-5.4l-14.1 3.9c-.4.1-.8.2-1.1.5-2.4 2 3 12.2 6.2 11.8 3.5-.5 6.4-2.7 9.2-4.7 1.3-1 7.3-4.1 7-6.1z"/><path fill="none" stroke="#7285C2" stroke-miterlimit="10" d="M27.9 66.9c2.7 10.2 5.5 20.4 8.6 30.5.1.2.4 0 .2-.1M18.7 80.8c2.7-.8 5.5-1.6 8.2-2.4M19.7 85.2c2.9-.9 5.8-1.8 8.8-2.6M21.9 89.7c2.6-1 5.2-1.8 7.9-2.4M31.8 80.5c9.4-2 18.7-4.7 27.9-7.6M55 58.1c3.2 11.1 6.4 22.2 9.7 33.3"/><path fill="none" stroke="#0E1439" stroke-miterlimit="10" d="M43.6 94.4c-.5 0-.7.7-.5 1.2.4.7 1.4.9 2 .5s.7-1.5.2-2.1-1.6-.5-2.1.1M53.9 90.5c.8 0 1.5 1 1.1 1.8s-1.7.8-2.1.1c-.4-.8.2-1.9 1-1.9"/></svg>