<svg xmlns="http://www.w3.org/2000/svg" viewBox="0 0 157.1 160.4"><path fill="#7285C2" d="M0 80.3C0 67.6 2.1 55 6 43.8c6.6-19 19.3-32 38-38.1 22.8-7.4 46-7.5 68.8-.2 22.3 7.1 35.6 23.3 40.9 46.3 4.5 19.6 4.5 39.3-.4 58.8-6.4 25.1-22.3 40.6-46.9 46.5-19.6 4.7-39.3 4.6-58.7-.9C14.1 146.6 0 113.2 0 80.3z"/><path fill="#FFF" d="M117.3 50.5c13.1 18.2 12.3 45-1.4 62.8-2.7 3.5-5.9 6.7-9.6 9-4.5 2.8-9.7 4.3-15 4.9-22.2 2.8-46.3-4-56.9-25.4-8.5-17.2-5.3-39.3 7.3-53.7 20.5-23.8 57.1-23.3 75.6 2.4z"/><path fill="#7881BF" d="M35.3 56.7c5.5-11.9 19.1-20.8 31.1-25.2.4-.2.9-.3 1.3 0 .2.2.3.5.3.7 1 5.8 6.1 11.5 3 17.4-3.8 7.4-13.3 8.5-19 13.7-2 1.8-3.7 4.7-2.5 7.1 1.1 2.2 4 2.7 6.5 2.7 2.5.1 5.3.2 6.9 2.1 1.3 1.6 1.1 3.9.8 5.9-1.3 8.1-3.6 15.3-3.8 23.6 0 1-.1 2.1-.8 2.7s-1.7.6-2.5.5c-4.5-.6-8.8-3.2-11.4-6.9-1.5-2.2-2.5-4.8-4.1-7.1-1.8-2.5-4.3-4.5-6.4-6.9-2-2.4-3.6-5.5-3-8.5.8-4 5.1-6.3 9-7.6 1.7-.5 3.9-1.5 3.9-3.3 0-2.3-7.6-5.4-9.6-6.5-.3-.2-.6-.4-.8-.7-.2-.4 0-.8.1-1.2.3-.7.6-1.6 1-2.5zM106 108.1c2.2-1.7 4-3.9 5.1-5.5 1.7-2.4 3-4.7 5.4-6.4 2.3-1.7 5.9-2 8.7-2.2 1.7-8.1 3.4-17.3 1.5-25.5-1.6-7.6-7.1-14.9-11.6-21.1-1.1-1.5-2.4-3.1-4.4-3.8-3.5-1.3-7.5 1.2-7.6 4.2 0 .8.2 1.7 0 2.6-.3 1.9-2.3 3.2-4.1 4.4-1.7 1.1-3.4 2.1-5.1 3.2-2.5 1.6-5.1 3.3-5.8 5.9-1.6 6.1 11.6 6.8 10.1 13.5-.7 3-4.9 4.3-8.7 4.5-2.3.1-4.8.2-6.3 1.4-6.4 5.4 7.8 10.3 9.9 13.8 1.3 2.2 1.4 4.7 1.3 7.1-.1 2-.2 4.4 1.7 5.8 3.1 2.1 6.8.6 9.9-1.9zM57.7 123c.8 1.1 3.6-.1 4.6-.2 2.7-.1 5.3.3 8.1-.2 1-.2 2.1-.4 3-1s1.6-1.6 2.7-1.8c1.7-.3 3.8 1.7 5.4 2.2 2 .7 4.7 1.2 6.6.1.7-.4 1.3-1 2-1.4 2.9-1.4 6 1.4 9.2 1.6 1.7.1 3.6-.4 4.8.7-3.8 4.6-15.1 4.8-20.6 5-7.4.3-14.8-.7-21.7-3.3-1.6-.3-3.2-.5-4.1-1.7zM103.1 37.1c-2.3-1.3-5.2-.3-7.8.2-3.1.6-6.7.4-8.9-1.7-1.5-1.4-2.1-1.7-4-2.4-1.6-.6-3.5 0-3.7-2.4 1.5-.7 3.3-.5 5-.2 7 1.2 14.4 2.5 19.6 6.9"/><path fill="#0E1439" d="M118.3 49.8c7.7 10.7 10.9 24.3 9.5 37.3-.7 6.5-2.6 12.9-5.5 18.8-.2.4-.3.7-.5 1.1l-.6 1.1-1.3 2.1c-.9 1.4-1.9 2.7-2.9 4-2 2.6-4.3 5-7 7-2.6 2.1-5.6 3.7-8.7 4.8-3.1 1.1-6.4 1.7-9.6 2.1-6.4.8-13 .8-19.4-.1s-12.8-2.8-18.5-5.9-10.9-7.2-14.9-12.4c-4-5.1-6.9-11.1-8.5-17.4-.7-3.2-1.3-6.4-1.4-9.6-.2-3.2 0-6.5.5-9.7l.4-2.4c.1-.8.4-1.6.5-2.4.3-1.6.9-3.1 1.3-4.7 1.1-3.1 2.4-6.1 4-8.9.8-1.4 1.7-2.8 2.6-4.1.5-.7 1-1.3 1.5-1.9.5-.6 1-1.3 1.6-1.9 2.1-2.5 4.5-4.7 7.1-6.7 5.2-4 11.1-7.1 17.5-8.8 6.3-1.7 13-2 19.5-1.1 3.2.5 6.4 1.3 9.5 2.3 3.1 1.1 6.1 2.5 8.9 4.1 5.7 3.4 10.5 8 14.4 13.3zm-2 1.4c-3.7-5-8.3-9.4-13.7-12.6-5.3-3.2-11.3-5.3-17.5-6.1-3.1-.4-6.2-.5-9.3-.3-3.1.2-6.2.6-9.2 1.4-6.1 1.5-11.8 4.4-16.7 8.2-2.5 1.9-4.8 4-6.9 6.4L41.5 50c-.5.6-1 1.2-1.4 1.8-.9 1.3-1.8 2.6-2.5 3.9-1.6 2.7-2.8 5.6-3.9 8.5-.5 1.5-1 3-1.3 4.5-.2.8-.4 1.5-.5 2.3l-.4 2.3c-.4 3.1-.7 6.2-.5 9.3.1 3.1.6 6.2 1.3 9.3 1.5 6 4.1 11.8 8.1 16.7 3.9 4.8 8.9 8.7 14.4 11.5 5.5 2.9 11.6 4.4 17.8 5.5 6.2.9 12.5 1.1 18.8.4 3.1-.3 6.2-1.1 9.1-2.2s5.7-2.5 8.1-4.4c2.5-1.9 4.6-4.2 6.6-6.6.9-1.3 1.9-2.5 2.7-3.8l1.2-2 .6-1c.2-.3.3-.7.5-1.1.7-1.4 1.4-2.8 1.9-4.3l.8-2.2c.2-.8.4-1.5.6-2.3s.5-1.5.6-2.3l.5-2.3c.4-1.5.5-3.1.7-4.7 1.4-12.4-1.7-25.4-9-35.6z"/></svg>