<svg xmlns="http://www.w3.org/2000/svg" viewBox="0 0 161.5 165"><path fill="#616FB4" d="M0 82.5c0-13 2.2-26 6.2-37.5C13 25.5 26 12.1 45.3 5.8c23.4-7.7 47.3-7.7 70.7-.2 22.9 7.3 36.6 24 42 47.6 4.7 20.1 4.7 40.4-.5 60.5-6.6 25.8-22.9 41.8-48.2 47.8-20.1 4.8-40.4 4.7-60.4-1C14.5 150.7 0 116.4 0 82.5z"/><path fill="#F4F5F7" d="M8.5 42.3h144.8v89.8H8.5z"/><path fill="#0E1439" d="M8.5 29.4h144.8v18.9H8.5z"/><path fill="none" d="M9.1 30.3h143.8v102.2H9.1z"/><path fill="none" stroke="#0E1439" stroke-linecap="round" stroke-linejoin="round" stroke-miterlimit="10" stroke-width="2" d="M9.1 30.3h143.8v102.2H9.1z"/><circle cx="31.8" cy="38.4" r="4.3" fill="#FFF"/><path fill="#FFF" d="M40.4 34.7h7.4v7.4h-7.4zM14.2 42.2l4.7-7.5 4.7 7.5zM15.4 66.6h129.2v57.8H15.4z"/><path fill="#4F60AC" d="M15.4 55.2h129.2v26.7H15.4z"/><path fill="none" stroke="#EDF1F4" stroke-linejoin="round" stroke-miterlimit="10" stroke-width="2" d="M25.5 101.5c5.3-.6 13.3-9 11.1-12.2s-3.2.9-4.1 2.5c-.9 1.6-1.3 3.6-1.7 5.6-.2 1.2-.4 2.4-.1 3.5.6 2.4 3.1 3.2 5.1 3.1 3.2-.2 6.4-1.5 9-3.9-.6.9.3 2.3 1.2 2.3.9.1 1.7-.6 2.5-1.2s1.8-1 2.6-.5c.4.2.6.6.9 1 1.8 2 4.6 1.5 7 .8h7.9c2.7 0 5.3 0 8 .4"/><path fill="none" stroke="#EDF1F4" stroke-miterlimit="10" stroke-width="2" d="M55.1 111.8l-28.6.3M41.1 116.7l-14.6.1M95.8 111.8l-28.5.3M87.8 116.7l-20.5.1M134.1 111.8l-28.6.3M115.8 116.7l-10.3.1"/><path fill="none" stroke="#FFF" stroke-linecap="round" stroke-miterlimit="10" stroke-width="2" d="M72 73c4.8-2.1 8.6-6.4 10-11.5.2-.6.3-1.3-.2-1.7-.3-.3-.9-.3-1.3-.3-2.8.4-5.1 2.6-6 5.3-1.4 4.2 1.1 9.3 5.4 10.5 4.2 1.2 9.2-2.2 9.4-6.6.1-1.9-1.5-4.2-3.3-3.4-1 .4-1.3 1.6-1.4 2.6-.1 3.6 3.3 6.8 6.9 6.5"/><path fill="none" stroke="#0E1439" stroke-linecap="round" stroke-miterlimit="10" d="M101.9 65.6l12.8-3.9M101.9 69.2h23M101.9 73.2l8.7 2.8M61 65.6l-12.7-3.9M61 69.2H38.1M61 73.2L52.4 76"/></svg>